<svg height="512pt" viewBox="0 0 512 512.001" width="512pt" xmlns="http://www.w3.org/2000/svg"><path d="m339.492188 63.199219h117.339843c22.09375 0 40.167969 18.074219 40.167969 40.167969v245.066406c0 22.089844-18.074219 40.167968-40.167969 40.167968h-401.664062c-22.09375 0-40.167969-18.078124-40.167969-40.167968v-245.066406c0-22.09375 18.074219-40.167969 40.167969-40.167969h117.359375" fill="#e7f0ef"/><path d="m456.832031 63.199219h-200.832031v325.402343h200.832031c22.09375 0 40.167969-18.078124 40.167969-40.167968v-245.066406c0-22.09375-18.074219-40.167969-40.167969-40.167969zm0 0" fill="#c5e1e6"/><path d="m456.832031 48.199219h-117.339843c-8.285157 0-15 6.714843-15 15 0 8.285156 6.714843 15 15 15h117.339843c13.878907 0 25.167969 11.289062 25.167969 25.167969v245.066406c0 13.875-11.289062 25.167968-25.167969 25.167968h-401.664062c-13.878907 0-25.167969-11.292968-25.167969-25.167968v-245.066406c0-13.878907 11.289062-25.167969 25.167969-25.167969h117.359375c8.28125 0 15-6.714844 15-15 0-8.285157-6.71875-15-15-15h-117.359375c-30.417969 0-55.167969 24.75-55.167969 55.167969v245.066406c0 30.417968 24.75 55.167968 55.167969 55.167968h161.730469v30.199219h-81.398438c-21.558594 0-39.101562 17.539063-39.101562 39.101563 0 21.558594 17.542968 39.097656 39.101562 39.097656h241c21.558594 0 39.101562-17.539062 39.101562-39.097656 0-21.5625-17.539062-39.101563-39.101562-39.101563h-81.398438v-30.199219h161.730469c30.421875 0 55.167969-24.75 55.167969-55.167968v-245.066406c0-30.417969-24.746094-55.167969-55.167969-55.167969zm0 0" fill="#265c76"/><path d="m456.832031 48.199219h-117.339843c-8.285157 0-15 6.714843-15 15 0 8.285156 6.714843 15 15 15h117.339843c13.878907 0 25.167969 11.289062 25.167969 25.167969v245.066406c0 13.875-11.289062 25.167968-25.167969 25.167968h-200.832031v138.398438h120.5c21.558594 0 39.101562-17.539062 39.101562-39.101562 0-21.558594-17.539062-39.097657-39.101562-39.097657h-81.398438v-30.199219h161.730469c30.421875 0 55.167969-24.75 55.167969-55.167968v-245.066406c0-30.417969-24.746094-55.167969-55.167969-55.167969zm0 0" fill="#1d4659"/><path d="m394.214844 79.800781c-1.292969-2.242187-3.167969-4.148437-5.488282-5.488281l-125.226562-72.300781c-4.640625-2.679688-10.359375-2.683594-15 0l-125.226562 72.296875c-2.320313 1.339844-4.195313 3.25-5.488282 5.492187-1.296875 2.242188-2.011718 4.820313-2.011718 7.5v144.597657c0 5.359374 2.859374 10.3125 7.5 12.992187l125.226562 72.300781c2.320312 1.339844 4.910156 2.007813 7.5 2.007813s5.179688-.667969 7.5-2.007813l125.226562-72.300781c4.640626-2.679687 7.5-7.632813 7.5-12.992187v-144.597657c0-2.679687-.714843-5.257812-2.011718-7.5zm0 0" fill="#ffd400"/><path d="m388.726562 74.308594-125.226562-72.296875c-4.640625-2.679688-10.359375-2.683594-15 0l-125.226562 72.296875c-2.320313 1.339844-4.195313 3.25-5.488282 5.492187l138.214844 79.800781 138.214844-79.800781c-1.292969-2.242187-3.167969-4.152343-5.488282-5.492187zm0 0" fill="#ff9f04"/><path d="m394.214844 79.800781-138.214844 79.800781v159.597657c2.589844 0 5.179688-.667969 7.5-2.007813l125.226562-72.300781c4.640626-2.679687 7.5-7.632813 7.5-12.992187v-144.597657c0-2.679687-.714843-5.257812-2.011718-7.5zm0 0" fill="#ff641a"/></svg>